<?xml version="1.0" encoding="utf-8"?>
<!-- Generator: Adobe Illustrator 26.0.3, SVG Export Plug-In . SVG Version: 6.00 Build 0)  -->
<svg version="1.1" xmlns="http://www.w3.org/2000/svg" xmlns:xlink="http://www.w3.org/1999/xlink" x="0px" y="0px"
	 viewBox="0 0 125 125" style="enable-background:new 0 0 125 125;" xml:space="preserve">
<style type="text/css">
	.st0{display:none;enable-background:new    ;}
	.st1{display:inline;}
	.st2{fill:#FFFFFF;}
	.st3{fill:none;}
	.st4{font-family:'TrebuchetMS-Bold';}
	.st5{font-size:20px;}
</style>
<g id="Layer_1">
	<g class="st0">
		<path class="st1" d="M31.7,58.8v-8.2h3.1c0.7,0,1.2,0.1,1.6,0.4c0.5,0.3,0.7,0.8,0.7,1.4c0,0.5-0.2,1-0.6,1.3
			c-0.4,0.3-0.8,0.5-1.4,0.6v0.1c0.6,0.1,1,0.2,1.4,0.5c0.5,0.4,0.8,0.9,0.8,1.5c0,0.8-0.3,1.4-0.9,1.8c-0.5,0.4-1.2,0.6-2,0.6H31.7
			z M33.5,51.3v2.8h0.4c0.2,0,0.4,0,0.6-0.1c0.2,0,0.3-0.1,0.4-0.2c0.2-0.2,0.3-0.3,0.4-0.5s0.1-0.4,0.1-0.7c0-0.4-0.1-0.7-0.3-1
			c-0.2-0.2-0.5-0.3-0.9-0.3C33.9,51.3,33.7,51.3,33.5,51.3z M33.5,54.8v3.3h0.6c0.4,0,0.7-0.1,1-0.4s0.4-0.7,0.4-1.1
			c0-0.6-0.2-1.1-0.5-1.3C34.6,55,34.1,54.8,33.5,54.8z"/>
		<path class="st1" d="M43.2,54.5v3.3c0,0.2,0,0.4,0.1,0.5c0.1,0.1,0.2,0.1,0.5,0.1v0.3c-0.2,0.1-0.3,0.1-0.5,0.2S42.9,59,42.8,59
			c-0.3,0-0.5-0.1-0.7-0.2c-0.2-0.2-0.4-0.4-0.5-0.6c-0.2,0.3-0.4,0.5-0.6,0.6C40.7,59,40.4,59,40.1,59c-0.5,0-0.9-0.1-1.2-0.4
			s-0.5-0.7-0.5-1.2s0.2-0.9,0.5-1.2c0.3-0.2,0.8-0.4,1.7-0.6c0.2,0,0.3-0.1,0.4-0.1c0.2-0.1,0.3-0.1,0.4-0.2
			c0.1-0.1,0.1-0.1,0.1-0.2s0-0.2,0-0.3c0-0.3-0.1-0.5-0.4-0.7c-0.1-0.3-0.4-0.4-0.7-0.4s-0.7,0.1-1,0.3s-0.4,0.3-0.5,0.5h-0.1
			l-0.1-0.8c0.3-0.2,0.6-0.4,1-0.6c0.4-0.2,0.8-0.2,1.2-0.2c0.6,0,1.1,0.1,1.5,0.3C43,53.6,43.2,54,43.2,54.5z M41.6,56.9v-1.2
			c-0.2,0.1-0.4,0.2-0.6,0.2c-0.3,0.1-0.5,0.2-0.6,0.3c-0.1,0.1-0.2,0.3-0.3,0.4C40,56.8,40,57,40,57.2c0,0.3,0.1,0.5,0.2,0.7
			c0.1,0.2,0.3,0.3,0.5,0.3c0.3,0,0.6-0.1,0.7-0.4C41.5,57.5,41.6,57.2,41.6,56.9z"/>
		<path class="st1" d="M44.7,58.8V53c0.1,0,0.3,0,0.4,0c0.2,0,0.3,0,0.4,0c0.2,0,0.3,0,0.5,0c0.1,0,0.2,0,0.3,0v0.9
			c0.3-0.3,0.5-0.5,0.8-0.7s0.7-0.3,1-0.3c0.7,0,1.2,0.2,1.5,0.7c0.3,0.4,0.4,1,0.4,1.8v3.5c-0.1,0-0.2,0-0.3,0c-0.3,0-0.5,0-0.5,0
			c-0.2,0-0.3,0-0.5,0c-0.1,0-0.3,0-0.3,0v-3c0-0.6-0.1-1.1-0.2-1.4c-0.2-0.4-0.4-0.6-0.8-0.6c-0.5,0-0.8,0.3-0.9,0.8
			c-0.1,0.3-0.1,0.8-0.1,1.4v2.8c-0.1,0-0.2,0-0.3,0c-0.3,0-0.5,0-0.5,0c-0.2,0-0.3,0-0.5,0C44.9,58.8,44.8,58.8,44.7,58.8z"/>
		<path class="st1" d="M55.2,54.1V53c0.1,0,0.3,0,0.4,0c0.2,0,0.3,0,0.4,0c0.2,0,0.3,0,0.5,0c0.1,0,0.2,0,0.3,0v8.9
			c-0.1,0-0.2,0-0.3,0c-0.3,0-0.5,0-0.5,0c-0.2,0-0.3,0-0.5,0c-0.1,0-0.3,0-0.3,0v-3.8c-0.2,0.2-0.3,0.4-0.6,0.6S54,59,53.6,59
			c-0.7,0-1.3-0.3-1.8-0.8s-0.6-1.3-0.6-2.1c0-1,0.2-1.7,0.5-2.2c0.4-0.6,1-0.9,1.7-0.9C54.3,52.9,54.8,53.3,55.2,54.1z M52.9,55.9
			c0,0.1,0,0.2,0,0.3c0,0.1,0,0.2,0,0.5s0.1,0.7,0.3,0.9c0.2,0.3,0.5,0.5,0.8,0.5c0.4,0,0.7-0.3,0.9-0.8c0.1-0.4,0.2-0.8,0.2-1.3
			c0-0.6-0.1-1.1-0.2-1.5c-0.2-0.6-0.5-0.9-1-0.9c-0.4,0-0.7,0.3-0.9,0.8C53,54.9,52.9,55.3,52.9,55.9z"/>
		<path class="st1" d="M63.3,53v5.8c-0.2,0-0.3,0-0.5,0c-0.1,0-0.2,0-0.3,0c-0.2,0-0.3,0-0.5,0c-0.1,0-0.2,0-0.3,0V58
			c-0.3,0.4-0.6,0.6-0.8,0.7c-0.3,0.2-0.6,0.3-1,0.3c-0.3,0-0.6-0.1-0.9-0.2c-0.3-0.1-0.5-0.3-0.7-0.6c-0.1-0.2-0.2-0.4-0.2-0.6
			c0-0.2-0.1-0.5-0.1-0.8v-0.4V53c0.1,0,0.3,0,0.5,0s0.3,0,0.4,0c0.2,0,0.3,0,0.5,0c0.1,0,0.3,0,0.3,0v3.3c0,0.3,0,0.5,0,0.6
			c0,0.1,0,0.3,0.1,0.4c0.1,0.2,0.2,0.4,0.3,0.5c0.1,0.1,0.3,0.2,0.5,0.2c0.5,0,0.8-0.2,0.9-0.6c0.1-0.3,0.2-0.7,0.2-1.2V53
			c0.1,0,0.3,0,0.5,0s0.3,0,0.4,0c0.2,0,0.3,0,0.5,0C63.1,53,63.2,53,63.3,53z"/>
		<path class="st1" d="M69.7,55.9h-3.4c0,0.7,0.1,1.2,0.3,1.6c0.3,0.4,0.7,0.6,1.3,0.6c0.2,0,0.5,0,0.7-0.1s0.5-0.2,0.7-0.4l0.2,0.1
			l-0.3,0.7c-0.5,0.4-1.1,0.5-1.7,0.5c-1,0-1.7-0.3-2.2-0.8s-0.8-1.3-0.8-2.3c0-0.9,0.2-1.5,0.7-2.1c0.5-0.5,1.2-0.8,2-0.8
			c0.9,0,1.5,0.3,1.9,0.9C69.5,54.3,69.7,55,69.7,55.9z M66.3,55.4h1.8c0-0.5,0-0.9-0.1-1.2c-0.2-0.5-0.4-0.7-0.8-0.7
			s-0.7,0.2-0.8,0.7C66.3,54.5,66.3,54.9,66.3,55.4z"/>
		<path class="st1" d="M79.4,49.7v9.1c-0.2,0-0.3,0-0.5,0c-0.1,0-0.2,0-0.3,0c-0.2,0-0.3,0-0.5,0c-0.1,0-0.2,0-0.3,0v-1
			C77.5,58.6,77,59,76.2,59c-0.8,0-1.4-0.3-1.8-0.9c-0.3-0.5-0.5-1.2-0.5-2.1c0-0.8,0.2-1.5,0.6-2.1c0.4-0.6,1-0.9,1.8-0.9
			c0.4,0,0.7,0.1,1,0.2c0.3,0.1,0.5,0.4,0.7,0.7v-4.2c0.1,0,0.3,0,0.5,0s0.3,0,0.4,0C79.1,49.7,79.2,49.7,79.4,49.7
			C79.2,49.7,79.3,49.7,79.4,49.7z M76.7,53.7c-0.5,0-0.8,0.3-1,0.9c-0.1,0.4-0.2,0.9-0.2,1.4c0,0.6,0.1,1,0.2,1.4
			c0.2,0.6,0.5,0.8,0.9,0.8c0.5,0,0.8-0.3,1-0.9c0.1-0.4,0.2-0.9,0.2-1.5c0-0.5-0.1-1-0.2-1.3C77.4,54,77.1,53.7,76.7,53.7z"/>
		<path class="st1" d="M86,53v5.8c-0.2,0-0.3,0-0.5,0c-0.1,0-0.2,0-0.3,0c-0.2,0-0.3,0-0.5,0c-0.1,0-0.2,0-0.3,0V58
			c-0.3,0.3-0.6,0.6-0.8,0.7c-0.3,0.2-0.6,0.3-1,0.3c-0.3,0-0.6-0.1-0.9-0.2c-0.3-0.1-0.5-0.3-0.7-0.6c-0.1-0.2-0.2-0.4-0.2-0.6
			c0-0.2-0.1-0.5-0.1-0.8v-0.4V53c0.1,0,0.3,0,0.5,0s0.3,0,0.4,0c0.2,0,0.3,0,0.5,0c0.1,0,0.3,0,0.3,0v3.3c0,0.3,0,0.5,0,0.6
			c0,0.1,0,0.3,0.1,0.4c0.1,0.2,0.2,0.4,0.3,0.5c0.1,0.1,0.3,0.2,0.5,0.2c0.5,0,0.8-0.2,0.9-0.6c0.1-0.2,0.1-0.6,0.1-1.2V53
			c0.1,0,0.3,0,0.5,0s0.3,0,0.4,0c0.2,0,0.3,0,0.5,0C85.8,53,85.9,53,86,53z"/>
		<path class="st1" d="M90.7,61.9V53c0.1,0,0.3,0,0.4,0c0.2,0,0.3,0,0.4,0c0.2,0,0.3,0,0.5,0c0.1,0,0.2,0,0.3,0v1.1
			c0.1-0.4,0.4-0.7,0.6-0.9c0.3-0.2,0.6-0.3,1-0.3c0.8,0,1.4,0.3,1.8,0.9c0.4,0.5,0.5,1.2,0.5,2c0,1-0.2,1.8-0.7,2.4
			c-0.4,0.5-1,0.8-1.7,0.8c-0.4,0-0.7-0.1-0.9-0.2c-0.2-0.2-0.5-0.4-0.6-0.6V62c-0.1,0-0.2,0-0.3,0c-0.3,0-0.5,0-0.5,0
			c-0.2,0-0.3,0-0.5,0C90.9,61.9,90.8,61.9,90.7,61.9z M93.4,58.2c0.4,0,0.7-0.3,0.8-0.6c0.3-0.5,0.4-1,0.4-1.6
			c0-0.7-0.1-1.3-0.2-1.6c-0.2-0.5-0.5-0.7-0.9-0.7c-0.5,0-0.8,0.3-1,0.9c-0.1,0.4-0.2,0.9-0.2,1.5c0,0.6,0.1,1,0.2,1.3
			C92.7,57.9,93,58.2,93.4,58.2z"/>
		<path class="st1" d="M102.4,55.9H99c0,0.7,0.1,1.2,0.3,1.6c0.3,0.4,0.7,0.6,1.3,0.6c0.2,0,0.5,0,0.7-0.1s0.5-0.2,0.7-0.4l0.1,0.1
			l-0.3,0.7c-0.5,0.4-1.1,0.5-1.7,0.5c-1,0-1.7-0.3-2.2-0.8s-0.8-1.3-0.8-2.3c0-0.9,0.2-1.5,0.7-2.1c0.5-0.5,1.2-0.8,2-0.8
			c0.9,0,1.5,0.3,1.9,0.9C102.2,54.3,102.4,55,102.4,55.9z M98.9,55.4h1.8c0-0.5,0-0.9-0.1-1.2c-0.1-0.5-0.4-0.7-0.7-0.7
			c-0.4,0-0.7,0.2-0.8,0.7C99,54.5,98.9,54.9,98.9,55.4z"/>
		<path class="st1" d="M108.7,53v5.8c-0.2,0-0.3,0-0.5,0c-0.1,0-0.2,0-0.3,0c-0.2,0-0.3,0-0.5,0c-0.1,0-0.2,0-0.3,0V58
			c-0.3,0.4-0.6,0.6-0.8,0.7c-0.3,0.2-0.6,0.3-1,0.3c-0.3,0-0.6-0.1-0.9-0.2c-0.3-0.1-0.5-0.3-0.7-0.6c-0.1-0.2-0.2-0.4-0.2-0.6
			c0-0.2-0.1-0.5-0.1-0.8v-0.4V53c0.1,0,0.3,0,0.5,0s0.3,0,0.4,0c0.2,0,0.3,0,0.5,0c0.1,0,0.3,0,0.3,0v3.3c0,0.3,0,0.5,0,0.6
			c0,0.1,0,0.3,0.1,0.4c0.1,0.2,0.2,0.4,0.3,0.5c0.1,0.1,0.3,0.2,0.5,0.2c0.5,0,0.8-0.2,0.9-0.6c0.1-0.2,0.1-0.6,0.1-1.2V53
			c0.1,0,0.3,0,0.5,0s0.3,0,0.4,0c0.2,0,0.3,0,0.5,0C108.5,53,108.6,53,108.7,53z"/>
		<path class="st1" d="M110.1,61.9V53c0.1,0,0.3,0,0.4,0c0.2,0,0.3,0,0.4,0c0.2,0,0.3,0,0.5,0c0.1,0,0.2,0,0.3,0v1.1
			c0.1-0.4,0.4-0.7,0.6-0.9c0.3-0.2,0.6-0.3,1-0.3c0.8,0,1.4,0.3,1.8,0.9c0.4,0.5,0.5,1.2,0.5,2c0,1-0.2,1.8-0.7,2.4
			c-0.4,0.5-1,0.8-1.7,0.8c-0.4,0-0.7-0.1-0.9-0.2c-0.2-0.2-0.4-0.4-0.6-0.6V62c-0.1,0-0.2,0-0.3,0c-0.3,0-0.5,0-0.5,0
			c-0.2,0-0.3,0-0.5,0C110.3,61.9,110.2,61.9,110.1,61.9z M112.8,58.2c0.4,0,0.7-0.3,0.8-0.6c0.2-0.4,0.3-0.9,0.3-1.6
			s-0.1-1.3-0.2-1.6c-0.2-0.4-0.4-0.6-0.8-0.6c-0.5,0-0.8,0.3-1,0.9c-0.1,0.4-0.2,0.9-0.2,1.5c0,0.6,0.1,1,0.2,1.3
			C112,57.9,112.3,58.2,112.8,58.2z"/>
		<path class="st1" d="M118.6,49.7v9.1c-0.1,0-0.2,0-0.3,0c-0.3,0-0.5,0-0.5,0c-0.2,0-0.3,0-0.5,0c-0.1,0-0.3,0-0.3,0v-9.1
			c0.1,0,0.3,0,0.5,0s0.3,0,0.4,0c0.2,0,0.3,0,0.5,0C118.4,49.7,118.5,49.7,118.6,49.7z"/>
		<path class="st1" d="M125.1,55.9h-3.5c0,0.7,0.1,1.2,0.3,1.6c0.3,0.4,0.7,0.6,1.3,0.6c0.2,0,0.5,0,0.7-0.1s0.5-0.2,0.7-0.4
			l0.1,0.1l-0.1,0.7c-0.5,0.4-1.1,0.5-1.7,0.5c-1,0-1.7-0.3-2.2-0.8s-0.8-1.3-0.8-2.3c0-0.9,0.2-1.5,0.7-2.1c0.5-0.5,1.2-0.8,2-0.8
			c0.9,0,1.5,0.3,1.9,0.9C124.9,54.3,125.1,55,125.1,55.9z M121.6,55.4h1.8c0-0.5,0-0.9-0.1-1.2c-0.1-0.5-0.4-0.7-0.7-0.7
			c-0.4,0-0.7,0.2-0.8,0.7C121.7,54.5,121.6,54.9,121.6,55.4z"/>
	</g>
	<g class="st0">
		<path class="st1" d="M31.7,65h4.1c1.2,0,2.1,0.4,2.8,1.2c0.6,0.7,0.9,1.6,0.9,2.7c0,1.3-0.4,2.4-1.3,3.2c-0.8,0.8-1.8,1.1-3.1,1.1
			h-3.4V65z M33.5,65.7v6.8h1c0.9,0,1.6-0.3,2.1-0.8c0.6-0.6,0.8-1.6,0.8-2.9c0-1.1-0.2-1.9-0.7-2.4s-1.1-0.7-2-0.7H33.5z"/>
		<path class="st1" d="M45.7,70.3h-3.4c0,0.7,0.1,1.2,0.3,1.6c0.3,0.4,0.7,0.6,1.3,0.6c0.2,0,0.5,0,0.7-0.1s0.5-0.2,0.7-0.4l0.1,0.1
			l-0.3,0.7c-0.5,0.4-1.1,0.5-1.7,0.5c-1,0-1.7-0.3-2.2-0.8c-0.5-0.6-0.8-1.3-0.8-2.3c0-0.9,0.2-1.5,0.7-2.1c0.5-0.5,1.2-0.8,2-0.8
			c0.9,0,1.5,0.3,1.9,0.9C45.5,68.7,45.7,69.4,45.7,70.3z M42.2,69.8H44c0-0.5,0-0.9-0.1-1.2c-0.1-0.5-0.4-0.7-0.7-0.7
			c-0.4,0-0.7,0.2-0.8,0.7C42.3,68.9,42.2,69.3,42.2,69.8z"/>
		<path class="st1" d="M46.6,71.7h0.3c0.1,0.3,0.3,0.6,0.5,0.7c0.2,0.2,0.5,0.3,0.8,0.3c0.2,0,0.4-0.1,0.6-0.2
			c0.2-0.1,0.3-0.3,0.3-0.5c0-0.3-0.2-0.5-0.7-0.8c-0.8-0.4-1.2-0.6-1.3-0.6c-0.5-0.3-0.7-0.8-0.7-1.4c0-0.6,0.2-1.1,0.6-1.4
			c0.4-0.3,0.9-0.5,1.5-0.5c0.3,0,0.6,0,0.9,0.2c0.3,0.1,0.6,0.2,0.8,0.4L49.9,69h-0.3c0-0.3-0.2-0.5-0.4-0.7
			C49,68.1,48.7,68,48.5,68s-0.4,0.1-0.6,0.2c-0.2,0.1-0.3,0.3-0.3,0.5c0,0.3,0.2,0.5,0.7,0.7c0.8,0.3,1.2,0.5,1.4,0.6
			c0.5,0.3,0.7,0.8,0.7,1.5c0,0.6-0.2,1-0.6,1.4c-0.4,0.4-1,0.5-1.7,0.5c-0.6,0-1.2-0.2-1.7-0.5L46.6,71.7z"/>
		<path class="st1" d="M56.5,67.9L56,69.1h-0.3c0-0.4-0.2-0.7-0.4-0.9c-0.2-0.2-0.5-0.4-0.9-0.4c-0.5,0-0.9,0.3-1.2,0.8
			c-0.2,0.4-0.3,0.9-0.3,1.5c0,0.8,0.1,1.3,0.4,1.7c0.3,0.4,0.8,0.6,1.4,0.6c0.2,0,0.5,0,0.7-0.1s0.4-0.2,0.6-0.4l0.2,0.2l-0.3,0.7
			c-0.1,0.1-0.4,0.2-0.7,0.3s-0.6,0.1-0.9,0.1c-1,0-1.7-0.2-2.3-0.7s-0.9-1.2-0.9-2.2s0.3-1.7,0.9-2.3c0.6-0.6,1.3-0.8,2.3-0.8
			c0.4,0,0.8,0,1.1,0.1C55.9,67.5,56.2,67.7,56.5,67.9z"/>
		<path class="st1" d="M60,73.4c-0.9,0-1.6-0.3-2.1-0.8s-0.8-1.2-0.8-2.1c0-1,0.3-1.7,0.8-2.3c0.5-0.6,1.2-0.9,2.2-0.9
			c0.9,0,1.6,0.3,2.2,0.8c0.5,0.5,0.8,1.2,0.8,2.1c0,0.9-0.3,1.7-0.8,2.3C61.7,73.1,60.9,73.4,60,73.4z M60.1,67.9
			c-0.4,0-0.8,0.2-1,0.7c-0.2,0.4-0.3,1-0.3,1.8c0,0.6,0.1,1.1,0.2,1.5c0.2,0.6,0.5,0.9,1,0.9c0.4,0,0.7-0.3,0.9-0.9
			c0.2-0.5,0.3-1.1,0.3-1.9c0-0.6-0.1-1.2-0.2-1.5C60.8,68.1,60.5,67.9,60.1,67.9z"/>
		<path class="st1" d="M69.3,67.4v5.8c-0.2,0-0.3,0-0.5,0c-0.1,0-0.2,0-0.3,0c-0.2,0-0.3,0-0.5,0c-0.1,0-0.2,0-0.3,0v-0.9
			c-0.3,0.4-0.6,0.6-0.8,0.7c-0.3,0.2-0.6,0.3-1,0.3c-0.3,0-0.6-0.1-0.9-0.2s-0.5-0.3-0.7-0.6c-0.1-0.2-0.2-0.4-0.2-0.6
			c0-0.2-0.1-0.5-0.1-0.8v-0.5v-3.3c0.1,0,0.3,0,0.5,0s0.3,0,0.4,0c0.2,0,0.3,0,0.5,0c0.1,0,0.3,0,0.3,0v3.4c0,0.3,0,0.5,0,0.6
			c0,0.1,0,0.3,0.1,0.4c0.1,0.2,0.2,0.4,0.3,0.5c0.1,0.1,0.3,0.2,0.5,0.2c0.5,0,0.8-0.2,0.9-0.6c0.1-0.2,0.1-0.6,0.1-1.2v-3.1
			c0.1,0,0.3,0,0.5,0s0.3,0,0.4,0c0.2,0,0.3,0,0.5,0C69.1,67.5,69.2,67.4,69.3,67.4z"/>
		<path class="st1" d="M70.9,73.2v-5.8c0.1,0,0.3,0,0.5,0s0.3,0,0.4,0c0.2,0,0.3,0,0.5,0c0.1,0,0.3,0,0.3,0v1.5
			c0.1-0.5,0.4-0.9,0.6-1.1c0.3-0.3,0.8-0.5,1.3-0.5c0,0.2,0,0.5,0,0.8c0,0.3,0,0.6,0,0.9l-0.1,0.1C74.3,69,74.2,69,74.1,69
			c-0.1,0-0.2,0-0.3,0c-0.3,0-0.5,0.1-0.7,0.2c-0.2,0.1-0.3,0.3-0.4,0.6c0,0.1-0.1,0.2-0.1,0.4c0,0.2,0,0.3,0,0.5v0.5v2.2
			c-0.1,0-0.2,0-0.3,0c-0.3,0-0.5,0-0.5,0c-0.2,0-0.3,0-0.5,0C71.1,73.2,70.9,73.2,70.9,73.2z"/>
		<path class="st1" d="M75.3,71.7h0.3c0.1,0.3,0.3,0.6,0.5,0.7c0.2,0.3,0.5,0.3,0.8,0.3c0.2,0,0.4-0.1,0.6-0.2s0.3-0.3,0.3-0.5
			c0-0.3-0.2-0.5-0.7-0.8c-0.8-0.4-1.2-0.6-1.3-0.6c-0.5-0.3-0.7-0.8-0.7-1.4c0-0.6,0.2-1.1,0.6-1.4c0.4-0.3,0.9-0.5,1.5-0.5
			c0.3,0,0.6,0,0.9,0.2c0.3,0.1,0.6,0.2,0.8,0.4l-0.3,1h-0.3c0-0.3-0.2-0.5-0.4-0.7c-0.2-0.2-0.5-0.3-0.7-0.3s-0.4,0.1-0.6,0.2
			c-0.2,0.1-0.3,0.3-0.3,0.5c0,0.3,0.2,0.5,0.7,0.7c0.8,0.3,1.2,0.5,1.4,0.6c0.5,0.3,0.7,0.8,0.7,1.5c0,0.6-0.2,1-0.6,1.4
			s-1,0.5-1.7,0.5c-0.6,0-1.2-0.2-1.7-0.5L75.3,71.7z"/>
	</g>
	<polygon points="76.421,6.577 50.381,6.577 37.26,30.282 50.381,53.775 76.421,53.775 89.34,30.282 	"/>
	<polygon class="st2" points="73.797,11.234 52.803,11.234 42.307,30.282 52.803,49.331 73.797,49.331 84.293,30.282 	"/>
</g>
<g id="Layer_2">
	<rect x="3.009" y="60.245" class="st3" width="118.981" height="64.755"/>
	<text transform="matrix(1 0 0 1 13.0956 75.185)"><tspan x="0" y="0" class="st4 st5">Banque du </tspan><tspan x="17.358" y="18" class="st4 st5">Peuple</tspan><tspan x="7.661" y="36" class="st4 st5">Descours</tspan></text>
</g>
</svg>
